<svg id="Layer_1" data-name="Layer 1" xmlns="http://www.w3.org/2000/svg" viewBox="0 0 122.88 122.88"><defs><style>.cls-1{fill:#fd5;}.cls-2{fill:#262626;fill-rule:evenodd;}</style></defs><title>number-ten</title><path class="cls-1" d="M61.44,0A61.46,61.46,0,1,1,18,18,61.21,61.21,0,0,1,61.44,0Zm0,7.78A53.66,53.66,0,1,1,7.78,61.44,53.65,53.65,0,0,1,61.44,7.78Z"/><path class="cls-2" d="M61.44,7.78A53.66,53.66,0,1,1,7.78,61.44,53.65,53.65,0,0,1,61.44,7.78Z"/><path class="cls-1" d="M49.77,40.33v42.8H38.15V51h-.24l-9.37,5.6V46.77l10.53-6.44Zm25.66,44a18.63,18.63,0,0,1-10.07-2.7,17.35,17.35,0,0,1-6.54-7.71,28.76,28.76,0,0,1-2.28-12.07,28.62,28.62,0,0,1,2.32-12,16.66,16.66,0,0,1,6.51-7.5,19,19,0,0,1,10.06-2.57A18.88,18.88,0,0,1,85.5,42.33,16.8,16.8,0,0,1,92,49.84a27.82,27.82,0,0,1,2.28,12A29.07,29.07,0,0,1,92,73.93a17.27,17.27,0,0,1-6.53,7.71A18.5,18.5,0,0,1,75.43,84.3Zm0-9.45q3,0,4.94-3.14c1.3-2.1,1.93-5.4,1.91-9.89a24.8,24.8,0,0,0-.87-7.21A8.89,8.89,0,0,0,79,50.46a5.28,5.28,0,0,0-3.56-1.35,5.63,5.63,0,0,0-4.9,3c-1.28,2-1.93,5.25-2,9.66a25.45,25.45,0,0,0,.87,7.38,9.07,9.07,0,0,0,2.43,4.28,5.27,5.27,0,0,0,3.56,1.37Z"/></svg>